# xmcd
#
# Track frame offsets: 
#        150
#        11476
#        23770
#        33942
#        43257
#        53119
#        61982
#        74439
#        81609
#        89039
#        99972
#        107888
#        120189
#        129460
#        139798
#        150636
#        159973
#        170348
#        179824
#        188099
#        198897
#        209757
#        219561
#        231459
#        238039
#
# Disc length: 3263 seconds
#
# Revision: 3
# Processed by: cddbd v1.5.2PL0 Copyright (c) Steve Scherf et al.
# Submitted via: ExactAudioCopyFreeDBPlugin 1.0
#
DISCID=660cbd19
DTITLE=Chet Atkins - 8 Classic Albums [Disc 3]
DYEAR=2013
DGENRE=Oldies
TTITLE0=Swedish Rhapsody
TTITLE1=Liza (All The Clouds'll Roll Away)
TTITLE2=In The Mood
TTITLE3=Heartaches
TTITLE4=Glow Worm
TTITLE5=Dance Of The Golden Rod
TTITLE6=Petite Waltz
TTITLE7=Adelita
TTITLE8=Gavotte In D
TTITLE9=Unchained Melody
TTITLE10=Waltz In A-Flat
TTITLE11=Malaguena
TTITLE12=El Cumbanchero
TTITLE13=Ain't Misbehavin'
TTITLE14=Shadow Waltz
TTITLE15=Anna (El Negro Zumbon)
TTITLE16=Yesterdays
TTITLE17=Portuguese Washerwoman
TTITLE18=Tiger Rag
TTITLE19=Walk, Don't Run
TTITLE20=Tara's Theme (From 'Gone With The Wind'')
TTITLE21=Johnson Rag
TTITLE22=Lullaby Of The Leaves
TTITLE23=Bourree
TTITLE24=Avorada
EXTD=
EXTT0=
EXTT1=
EXTT2=
EXTT3=
EXTT4=
EXTT5=
EXTT6=
EXTT7=
EXTT8=
EXTT9=
EXTT10=
EXTT11=
EXTT12=
EXTT13=
EXTT14=
EXTT15=
EXTT16=
EXTT17=
EXTT18=
EXTT19=
EXTT20=
EXTT21=
EXTT22=
EXTT23=
EXTT24=
PLAYORDER=
